<?xml version="1.0" encoding="utf-8"?>
<!-- Generator: Adobe Illustrator 18.1.1, SVG Export Plug-In . SVG Version: 6.00 Build 0)  -->
<!DOCTYPE svg PUBLIC "-//W3C//DTD SVG 1.1//EN" "http://www.w3.org/Graphics/SVG/1.1/DTD/svg11.dtd">
<svg version="1.1" id="Layer_1" xmlns="http://www.w3.org/2000/svg" xmlns:xlink="http://www.w3.org/1999/xlink" x="0px" y="0px"
	 viewBox="0 0 432 432" enable-background="new 0 0 432 432" xml:space="preserve">
<path fill="#F84545" d="M150.3,56.1c2.2,0,4.1,3.7,4.1,8.1s-1.8,8.1-4.1,8.1c-2.2,0-4.1-3.7-4.1-8.1S148.1,56.1,150.3,56.1
	 M174.9,56.1c2.2,0,4.1,3.7,4.1,8.1s-1.8,8.1-4.1,8.1c-2.2,0-4.1-3.7-4.1-8.1S172.7,56.1,174.9,56.1 M153.6,18.3
	c0,0,25.6,9.1,21.5,25.6c0,0,16.3,0,9.1,14.2c0,0,17.3,1.8,12.4,15.7c-5.3,4.9-6.5,6.3-11.4,9.8l11.6-6.5c4.3,2,16.7,9.6,2.8,19.9
	c-16.3,12.2-40.9,1-49,1c-8.1,0-16.3,3-20.5,3c-4.3,0-8.1-4.1-8.1-12.2s8.1-12.2,12.2-12.2c0,0-12.2-12.2,8.1-20.5
	c0,0-8.1-12.2,8.1-16.3c0,0-4.1-4.1,0-8.1C154.6,27.4,153.6,22.3,153.6,18.3 M146.3,80.5c5.5,4.9,11,9.6,16.3,9.6s11-4.7,16.3-9.6
	H146.3 M150.3,51.8c-4.5,0-8.1,5.5-8.1,12.2s3.7,12.2,8.1,12.2c4.5,0,8.1-5.5,8.1-12.2C158.7,57.3,155,51.8,150.3,51.8 M174.9,51.8
	c-4.5,0-8.1,5.5-8.1,12.2s3.7,12.2,8.1,12.2c4.5,0,8.1-5.5,8.1-12.2S179.4,51.8,174.9,51.8z"/>
<path fill="#F84545" d="M292.8,27.4v12.2h-8.1c-2.2,0-4.1,1.8-4.1,4.1v8.1h12.2V64h-12.2v28.7h-12.2V64h-8.1V51.8h8.1V41.6
	c0-7.9,6.5-14.2,14.2-14.2 M296.9,19.3h-65.5c-4.5,0-8.1,3.7-8.1,8.1v65.5c0,4.5,3.7,8.1,8.1,8.1h65.5c4.5,0,8.1-3.7,8.1-8.1V27.4
	C305.2,22.7,301.4,19.3,296.9,19.3z"/>
<path fill="#F84545" d="M335.7,19.3h65.5c4.5,0,8.1,3.7,8.1,8.1v65.5c0,4.5-3.7,8.1-8.1,8.1h-21.1c-1.4-0.4-1.4-3-1.4-4.1V85.7
	c0-3.9-1.4-6.3-2.8-7.5c9.1-1,18.7-4.5,18.7-20.1c0-4.5-1.6-8.1-4.3-11.2c0.4-1,1.8-5.3-0.4-10.8c0,0-3.5-1-11.2,4.3
	c-3.3-0.8-6.7-1.4-10.2-1.4s-6.9,0.4-10.2,1.4c-7.7-5.3-11.2-4.3-11.2-4.3c-2.2,5.5-0.8,9.8-0.4,10.8c-2.6,2.8-4.3,6.5-4.3,11.2
	c0,15.7,9.6,19.1,18.7,20.1c-1.2,1-2.2,2.8-2.6,5.5c-2.2,1-8.3,2.8-12-3.5c0,0-2.2-3.9-6.3-4.3c0,0-4.1,0-0.4,2.4
	c0,0,2.8,1.2,4.7,6.1c0,0,2.4,7.9,13.8,5.5v6.9c0,1,0,3.9-1.4,4.1H336c-4.5,0-8.1-3.7-8.1-8.1V27.4
	C327.4,22.9,331.1,19.3,335.7,19.3z"/>
<path fill="#F84545" d="M31.6,19.5h63c4.9,0,8.9,4.1,8.9,8.9v63c0,4.9-4.1,8.9-8.9,8.9h-63c-4.9,0-8.9-4.1-8.9-8.9v-63
	C22.5,23.5,26.5,19.5,31.6,19.5 M77,80.3c-1.2-6.1-2.8-11.6-4.5-16.5l5.1-0.4l0,0l0,0c2.8,0,6.1,0.4,9.6,1.2
	C85.9,71.1,82.2,76.6,77,80.3 M62.9,84.7c-5.5,0-10.6-1.8-14.6-4.9c0.8-1.4,2.6-4.3,5.5-7.1c3-2.8,7.3-5.9,12.8-7.7
	c1.8,5.3,3.5,11.2,4.9,17.9C69,84.1,66.2,84.7,62.9,84.7 M38.5,60.1v-0.4h2.6l0,0c4.9,0,13.6-0.4,22.4-3.3l1.4,3.3
	c-5.9,2-10.4,5.1-13.8,8.1c-3.3,3-5.5,5.9-6.7,7.9C40.6,71.5,38.5,66,38.5,60.1 M52.1,38c1.6,2,5.1,6.5,8.7,13.4
	C53.4,53.6,46,54,41.4,54H41l0,0h-2C41,47.1,45.8,41.2,52.1,38 M62.9,35.5c5.9,0,11.2,2,15.2,5.5c-3.3,3.9-7.5,6.7-12.2,8.5
	c-3.3-6.3-6.3-10.8-8.5-13.4C59.5,35.7,61.3,35.5,62.9,35.5 M82.2,44.9c3,3.9,5.1,8.7,5.3,14c-3.5-0.8-6.9-1-10-1l0,0
	c-2.4,0-4.9,0.2-7.1,0.6l-1.6-3.9C73.7,52.4,78.4,49.4,82.2,44.9 M62.9,28.6c-17.5,0-31.5,14-31.5,31.5s14,31.5,31.5,31.5
	s31.5-14,31.5-31.5S80.4,28.6,62.9,28.6z"/>
<path fill="#3EB5AC" d="M150.3,145.1c2.2,0,4.1,3.7,4.1,8.1c0,4.5-1.8,8.1-4.1,8.1c-2.2,0-4.1-3.7-4.1-8.1
	C146.3,148.8,148.1,145.1,150.3,145.1 M174.9,145.1c2.2,0,4.1,3.7,4.1,8.1c0,4.5-1.8,8.1-4.1,8.1c-2.2,0-4.1-3.7-4.1-8.1
	C170.9,148.8,172.7,145.1,174.9,145.1 M153.6,107.3c0,0,25.6,9.1,21.5,25.6c0,0,16.3,0,9.1,14.2c0,0,17.3,1.8,12.4,15.7
	c-5.3,4.9-6.5,6.3-11.4,9.8l11.6-6.5c4.3,2,16.7,9.6,2.8,19.9c-16.3,12.2-40.9,1-49,1c-8.1,0-16.3,3-20.5,3c-4.3,0-8.1-4.1-8.1-12.2
	c0-8.1,8.1-12.2,12.2-12.2c0,0-12.2-12.2,8.1-20.5c0,0-8.1-12.2,8.1-16.3c0,0-4.1-4.1,0-8.1C154.6,116.4,153.6,111.4,153.6,107.3
	 M146.3,169.7c5.5,4.9,11,9.6,16.3,9.6s11-4.7,16.3-9.6H146.3 M150.3,141c-4.5,0-8.1,5.5-8.1,12.2s3.7,12.2,8.1,12.2
	c4.5,0,8.1-5.5,8.1-12.2C158.7,146.5,155,141,150.3,141 M174.9,141c-4.5,0-8.1,5.5-8.1,12.2s3.7,12.2,8.1,12.2
	c4.5,0,8.1-5.5,8.1-12.2C183.1,146.5,179.4,141,174.9,141z"/>
<path fill="#3EB5AC" d="M292.8,116.4v12.2h-8.1c-2.2,0-4.1,1.8-4.1,4.1v8.1h12.2V153h-12.2v28.7h-12.2V153h-8.1v-12.2h8.1v-10.2
	c0-7.9,6.5-14.2,14.2-14.2 M296.9,108.3h-65.5c-4.5,0-8.1,3.7-8.1,8.1v65.5c0,4.5,3.7,8.1,8.1,8.1h65.5c4.5,0,8.1-3.7,8.1-8.1v-65.5
	C305.2,112,301.4,108.3,296.9,108.3z"/>
<path fill="#3EB5AC" d="M335.7,108.3h65.5c4.5,0,8.1,3.7,8.1,8.1v65.5c0,4.5-3.7,8.1-8.1,8.1h-21.1c-1.4-0.4-1.4-3-1.4-4.1v-11.2
	c0-3.9-1.4-6.3-2.8-7.5c9.1-1,18.7-4.5,18.7-20.1c0-4.5-1.6-8.1-4.3-11.2c0.4-1,1.8-5.3-0.4-10.8c0,0-3.5-1-11.2,4.3
	c-3.3-0.8-6.7-1.4-10.2-1.4s-6.9,0.4-10.2,1.4c-7.7-5.3-11.2-4.3-11.2-4.3c-2.2,5.5-0.8,9.8-0.4,10.8c-2.6,2.8-4.3,6.5-4.3,11.2
	c0,15.7,9.6,19.1,18.7,20.1c-1.2,1-2.2,2.8-2.6,5.5c-2.2,1-8.3,2.8-12-3.5c0,0-2.2-3.9-6.3-4.3c0,0-4.1,0-0.4,2.4
	c0,0,2.8,1.2,4.7,6.1c0,0,2.4,7.9,13.8,5.5v6.9c0,1,0,3.9-1.4,4.1H336c-4.5,0-8.1-3.7-8.1-8.1v-65.5
	C327.4,112,331.1,108.3,335.7,108.3z"/>
<path fill="#3EB5AC" d="M31.6,108.7h63c4.9,0,8.9,4.1,8.9,8.9v63c0,4.9-4.1,8.9-8.9,8.9h-63c-4.9,0-8.9-4.1-8.9-8.9v-63
	C22.5,112.8,26.5,108.7,31.6,108.7 M77,169.5c-1.2-6.1-2.8-11.6-4.5-16.5l5.1-0.4l0,0l0,0c2.8,0,6.1,0.4,9.6,1.2
	C85.9,160.2,82.2,165.8,77,169.5 M62.9,173.8c-5.5,0-10.6-1.8-14.6-4.9c0.8-1.4,2.6-4.3,5.5-7.1c3-2.8,7.3-5.9,12.8-7.7
	c1.8,5.3,3.5,11.2,4.9,17.9C69,173.2,66.2,173.8,62.9,173.8 M38.5,149.2v-0.4h2.6l0,0c4.9,0,13.6-0.4,22.4-3.3l1.4,3.3
	c-5.9,2-10.4,5.1-13.8,8.1c-3.3,3-5.5,5.9-6.7,7.9C40.6,160.8,38.5,155.3,38.5,149.2 M52.1,127.2c1.6,2,5.1,6.5,8.7,13.4
	c-7.5,2.2-14.8,2.6-19.5,2.6H41l0,0h-2C41,136.2,45.8,130.3,52.1,127.2 M62.9,124.6c5.9,0,11.2,2,15.2,5.5
	c-3.3,3.9-7.5,6.7-12.2,8.5c-3.3-6.3-6.3-10.8-8.5-13.4C59.5,124.8,61.3,124.6,62.9,124.6 M82.2,133.9c3,3.9,5.1,8.7,5.3,14
	c-3.5-0.8-6.9-1-10-1l0,0c-2.4,0-4.9,0.2-7.1,0.6l-1.6-3.9C73.7,141.5,78.4,138.4,82.2,133.9 M62.9,117.7c-17.5,0-31.5,14-31.5,31.5
	s14,31.5,31.5,31.5s31.5-14,31.5-31.5S80.4,117.7,62.9,117.7z"/>
</svg>
